<svg xmlns="http://www.w3.org/2000/svg" width="196.104" height="148" viewBox="0 0 196.104 148"><g id="Grupo_180" data-name="Grupo 180" transform="translate(2618.605 -2338.707)"><path id="Caminho_772" data-name="Caminho 772" d="M-2471.731,2405.171a.129.129,0,0,1-.162-.2c1.761-1.93,7.245-6.607,17.448-4.28,13.935,3.185,16.753-3.345,18.985-1.774,1.538,1.083-.511,2.979-1.055,3.368s-6.054,5.108-17.284,1.512c-9.633-3.08-15.828.006-17.932,1.372" transform="translate(-73.173 -29.915)" fill="#008ccf"></path><path id="Caminho_773" data-name="Caminho 773" d="M-2488.271,2427.034a.182.182,0,0,1-.288-.216,19.192,19.192,0,0,1,17.074-9.87c11.187.078,14.057,4.427,23.071,3.954,8.852-.464,14.1-4.539,16.22-1.718,2,2.665-.236,5.507-3.928,6.02a47.647,47.647,0,0,1-21.689-1.251c-11.178-3.124-19.771-7.556-30.459,3.08" transform="translate(-64.865 -39.033)" fill="#008ccf"></path><path id="Caminho_774" data-name="Caminho 774" d="M-2430.385,2438.687a.257.257,0,0,0-.357.357c1.268,1.888,5.221,5.853,13.152,7.187,10.524,1.769,10.079-3.184,9.842-3.752-.267-.646-.889-1.746-4.114-1.13-3.086.588-11.331,2.23-18.523-2.663" transform="translate(-93.697 -49.854)" fill="#008ccf"></path><path id="Caminho_775" data-name="Caminho 775" d="M-2470.477,2390.525a.055.055,0,0,1-.035.1c-.962-.133-4.774-.727-6.814-2.159-2.346-1.651-1.21-3.236-1.21-3.236s1.193-1.632,2.968.21c1.974,2.046,2.409,3.253,5.092,5.083" transform="translate(-69.74 -22.877)" fill="#ff7300"></path><path id="Caminho_776" data-name="Caminho 776" d="M-2467.343,2363.856c-1.524-2.864-5.757-1.126-3.855,2.409a23.523,23.523,0,0,0,9.01,8.409.052.052,0,0,0,.067-.078c-2.833-3.187-3.228-6.994-5.222-10.74" transform="translate(-73.298 -11.83)" fill="#ff7300"></path><path id="Caminho_777" data-name="Caminho 777" d="M-2444.3,2360.688a.086.086,0,0,1-.141.087c-.951-.864-4.885-4.7-5.962-10.016-.948-4.677,5.789-6.412,5.285,2.539a21.988,21.988,0,0,0,.818,7.39" transform="translate(-83.867 -4.094)" fill="#ff7300"></path><path id="Caminho_778" data-name="Caminho 778" d="M-2421.687,2354.331a.074.074,0,0,1-.145-.009,21.22,21.22,0,0,1,1.147-10.791c1.241-3.518,3.007-4.628,4.466-4.824h1.01a3.866,3.866,0,0,1,1.195.356c1.8.893,1.827,4.035-.965,6.158-2.391,1.822-5.7,5.827-6.708,9.109" transform="translate(-98.039)" fill="#ff7300"></path><path id="Caminho_779" data-name="Caminho 779" d="M-2409.23,2370.375a.084.084,0,0,1-.147-.067,19.789,19.789,0,0,1,7.392-11.072c7.469-5.786,10.212-2.521,10.659-1.033.45,1.507.127,4.3-4.355,5.042-3.827.64-7.711,1.179-13.549,7.129" transform="translate(-104.379 -8.593)" fill="#ff7300"></path><path id="Caminho_780" data-name="Caminho 780" d="M-2395,2390.74c-.064.02-.115-.056-.069-.1a15.6,15.6,0,0,1,9.872-4.045c3.352-.064,3.083,3.457.481,3.509-4.323.087-4.654-1.075-10.284.634" transform="translate(-111.508 -23.89)" fill="#ff7300"></path><path id="Caminho_781" data-name="Caminho 781" d="M-2543.421,2526.392h-8.408v-32.513h11.927c7.677,0,12.325,3.568,12.325,10.316,0,7.579-5.527,11.391-13.351,11.391h-2.493Zm1.908-17.31c3.225,0,5.279-.976,5.279-4.351,0-3.326-1.761-4.253-4.841-4.253h-2.346v8.6Z" transform="translate(-33.313 -77.412)" fill="#008ccf"></path><path id="Caminho_782" data-name="Caminho 782" d="M-2487.6,2526.392h-8.406v-32.513h11.639c7.53,0,12.567,2.3,12.567,9.239a9.2,9.2,0,0,1-5.037,8.264,4.895,4.895,0,0,1,2.15,2.542l5.476,12.469h-9l-4.495-10.316a2.644,2.644,0,0,0-2.592-1.858h-2.3Zm3.182-18.63c2.492,0,4.014-1.271,4.014-3.959s-1.616-3.375-4.651-3.375h-2.545v7.334Z" transform="translate(-61.161 -77.412)" fill="#008ccf"></path><rect id="Ret&#xE2;ngulo_186" data-name="Ret&#xE2;ngulo 186" width="8.414" height="32.513" transform="translate(-2527.24 2416.467)" fill="#008ccf"></rect><path id="Caminho_783" data-name="Caminho 783" d="M-2402.876,2526.392l-10.463-32.514h8.555l6.406,22.246h.292l6.553-22.246h8.267l-10.763,32.514Z" transform="translate(-102.403 -77.412)" fill="#008ccf"></path><path id="Caminho_784" data-name="Caminho 784" d="M-2347.557,2493.877h21.27v7.334h-12.86v4.939h11.048v7.334h-11.048v5.573h13.2v7.333h-21.612Z" transform="translate(-135.22 -77.411)" fill="#008ccf"></path><path id="Caminho_785" data-name="Caminho 785" d="M-2564.812,2593.815v15.323h-1.821v-7.19h-7.994v7.19h-1.821v-15.323h1.821v6.545h7.994v-6.545Z" transform="translate(-21.031 -127.268)" fill="#ff7300"></path><path id="Caminho_786" data-name="Caminho 786" d="M-2542.212,2600.9c1.59,0,4.725.506,4.725,5.716,0,4.491-2.235,6.382-5.116,6.382-2.926,0-4.722-1.981-4.722-6.13,0-4.769,2.834-5.968,5.114-5.968m2.9,6.106c0-2.766-.808-4.7-3.042-4.7-2.19,0-3.18,1.843-3.18,4.33,0,2.28.461,4.976,3.086,4.976C-2540.254,2611.611-2539.309,2609.514-2539.309,2607Z" transform="translate(-35.56 -130.802)" fill="#ff7300"></path><path id="Caminho_787" data-name="Caminho 787" d="M-2520.319,2592.439V2597h3.271v1.542h-3.271v6.821c0,1.52.6,2,1.68,2a3.331,3.331,0,0,0,1.75-.551l.531,1.2a4.864,4.864,0,0,1-2.6.764c-3.065,0-3.158-1.776-3.158-3.456v-12.88Z" transform="translate(-48.136 -126.582)" fill="#ff7300"></path><path id="Caminho_788" data-name="Caminho 788" d="M-2500.206,2597.79c0,3.41-4.1,3.964-6.337,3.964-.231,0-.414-.025-.6-.025.093,1.89,1.015,3.872,3.458,3.872a4.735,4.735,0,0,0,2.949-1.061l.689,1.176a5.961,5.961,0,0,1-3.754,1.315c-3.6,0-5.116-2.443-5.116-5.876,0-3.411,1.843-6.223,5.347-6.223,2.142,0,3.363,1.153,3.363,2.857m-3.456-1.52c-2.465,0-3.411,2.327-3.48,4.147.14,0,.278.023.461.023,1.568,0,4.792-.369,4.792-2.443A1.644,1.644,0,0,0-2503.661,2596.271Zm.485-7.328c.621.162,1.427.415,1.427,1.038a1.717,1.717,0,0,1-.507.969c-.551.621-1.542,1.59-2.74,2.74l-.715-.576Z" transform="translate(-54.722 -124.838)" fill="#ff7300"></path><path id="Caminho_789" data-name="Caminho 789" d="M-2486.144,2592.619a1.191,1.191,0,0,1,1.2,1.2,1.186,1.186,0,0,1-1.221,1.222,1.15,1.15,0,0,1-1.173-1.222,1.177,1.177,0,0,1,1.2-1.2m-.9,15.923v-11.451h1.8v11.451Z" transform="translate(-65.486 -126.672)" fill="#ff7300"></path><path id="Caminho_790" data-name="Caminho 790" d="M-2477.772,2610.6a5.669,5.669,0,0,0,3.135,1.013c1.289,0,2.28-.6,2.28-1.958,0-1.334-1.035-1.751-2.373-2.072-1.842-.439-3.478-1.016-3.478-3.3,0-2.3,1.844-3.388,3.848-3.388a5.461,5.461,0,0,1,3.824,1.545l-1.036,1.058a4.111,4.111,0,0,0-2.859-1.244,1.865,1.865,0,0,0-2.1,1.776c0,1.359,1.131,1.68,2.442,2.074,1.661.507,3.481,1.058,3.481,3.385,0,2.26-1.66,3.5-4.01,3.5a6.665,6.665,0,0,1-3.847-1.106Z" transform="translate(-69.915 -130.802)" fill="#ff7300"></path><path id="Caminho_791" data-name="Caminho 791" d="M-2436.168,2600.8a8.876,8.876,0,0,1-1.107,5.094c1.221.99,2.375,1.821,2.971,2.256l-.965,1.222c-.785-.551-1.821-1.36-2.949-2.257a6.48,6.48,0,0,1-5.023,2.074c-3.548,0-5.094-2.167-5.094-4.677a5.544,5.544,0,0,1,3-4.886,5.38,5.38,0,0,1-.763-2.628c0-2.141,1.474-3.732,4.032-3.732a4.441,4.441,0,0,1,3.825,2.029l-1.221.942a3.231,3.231,0,0,0-2.581-1.59,2.132,2.132,0,0,0-2.395,2.327c0,2.513,3.18,5.531,5.966,7.879a7.339,7.339,0,0,0,.714-4.054Zm-8.409.025a4.245,4.245,0,0,0-2.1,3.594c0,1.935,1.221,3.361,3.593,3.361a4.707,4.707,0,0,0,3.709-1.656A29.785,29.785,0,0,1-2444.577,2600.824Z" transform="translate(-84.945 -126.994)" fill="#ff7300"></path><path id="Caminho_792" data-name="Caminho 792" d="M-2403.919,2609.139h-1.822v-15.324h4.979c3.224,0,5.16,1.568,5.16,4.562,0,3.433-2.35,5.116-5.69,5.116h-2.628Zm2.3-7.12c2.443,0,4.149-.9,4.149-3.363,0-3.042-1.844-3.343-4.449-3.343h-2v6.706Z" transform="translate(-106.194 -127.268)" fill="#ff7300"></path><path id="Caminho_793" data-name="Caminho 793" d="M-2373.861,2610.667l.183,2h-1.613l-.138-1.36-.07-.022a3.849,3.849,0,0,1-3.364,1.706c-3.2,0-4.562-2.212-4.562-5.556,0-4.078,1.959-6.542,5.782-6.542a12.217,12.217,0,0,1,3.78.738Zm-1.776-7.972a6.484,6.484,0,0,0-2.3-.391c-2.764,0-3.709,2.257-3.709,5.206,0,2,.6,4.148,3.019,4.148a2.754,2.754,0,0,0,2.994-2.629Z" transform="translate(-117.327 -130.802)" fill="#ff7300"></path><path id="Caminho_794" data-name="Caminho 794" d="M-2355.885,2612.672h-1.775v-9.884l-.138-1.567h1.542l.208,1.658a3.01,3.01,0,0,1,2.882-1.981,3.509,3.509,0,0,1,1.817.439l-.551,1.589a3.28,3.28,0,0,0-1.5-.438c-1.475,0-2.421,1.337-2.487,2.882Z" transform="translate(-130.111 -130.802)" fill="#ff7300"></path><path id="Caminho_795" data-name="Caminho 795" d="M-2334.833,2617.509h-1.8v-5.943h-.045a4.19,4.19,0,0,1-3.3,1.43c-2.812,0-4.264-2.007-4.264-5.761,0-4.01,2.052-6.336,5.485-6.336a10.4,10.4,0,0,1,3.915.807Zm-1.772-14.791a5.57,5.57,0,0,0-2.027-.391c-2.581,0-3.827,1.728-3.827,4.538,0,2.049.163,4.77,2.859,4.77a2.728,2.728,0,0,0,2.995-2.375Z" transform="translate(-136.879 -130.802)" fill="#ff7300"></path><path id="Caminho_796" data-name="Caminho 796" d="M-2309.809,2601.543v9.768l.161,1.683h-1.59l-.184-1.568h-.047a4.2,4.2,0,0,1-3.617,1.891c-2.465,0-3.708-1.292-3.708-3.94v-7.834h1.8v7.325c0,1.73.346,3.041,2.375,3.041a3.1,3.1,0,0,0,3.04-2.762v-7.6Z" transform="translate(-149.57 -131.124)" fill="#ff7300"></path><path id="Caminho_797" data-name="Caminho 797" d="M-2286.532,2603.754c0,3.41-4.1,3.964-6.337,3.964-.23,0-.415-.025-.6-.025.093,1.89,1.015,3.872,3.458,3.872a4.737,4.737,0,0,0,2.949-1.061l.689,1.176a5.962,5.962,0,0,1-3.754,1.315c-3.6,0-5.116-2.443-5.116-5.876,0-3.412,1.843-6.222,5.347-6.222,2.142,0,3.363,1.153,3.363,2.857m-3.455-1.52c-2.466,0-3.412,2.327-3.481,4.147.14,0,.278.023.462.023,1.566,0,4.792-.368,4.792-2.443A1.644,1.644,0,0,0-2289.987,2602.234Z" transform="translate(-161.32 -130.802)" fill="#ff7300"></path><path id="Caminho_798" data-name="Caminho 798" d="M-2274.448,2610.6a5.668,5.668,0,0,0,3.135,1.013c1.289,0,2.28-.6,2.28-1.958,0-1.334-1.036-1.751-2.372-2.072-1.843-.439-3.479-1.016-3.479-3.3,0-2.3,1.843-3.388,3.846-3.388a5.463,5.463,0,0,1,3.825,1.545l-1.035,1.058a4.11,4.11,0,0,0-2.859-1.244,1.866,1.866,0,0,0-2.1,1.776c0,1.359,1.131,1.68,2.443,2.074,1.66.507,3.48,1.058,3.48,3.385,0,2.26-1.659,3.5-4.01,3.5a6.657,6.657,0,0,1-3.846-1.106Z" transform="translate(-171.35 -130.802)" fill="#ff7300"></path><path id="Caminho_799" data-name="Caminho 799" d="M-2239.105,2603.683a.048.048,0,0,1-.093,0,13.76,13.76,0,0,1,.743-7.011c1.322-3.745,3.558-3.288,4.333-2.9,1.167.582,1.186,2.621-.626,4a14.2,14.2,0,0,0-4.358,5.916" transform="translate(-189.195 -127.119)" fill="#ff7300"></path><path id="Caminho_800" data-name="Caminho 800" d="M-2606.4,2602.068a.06.06,0,0,0,.109-.038,14.2,14.2,0,0,0-4.573-8.395c-4.968-4.622-7.143-2.464-7.557-1.429a2.651,2.651,0,0,0-.186.934v.066c.013,1.036.656,2.284,2.975,2.889,2.7.7,5.439,1.338,9.231,5.973" transform="translate(0 -125.759)" fill="#ff7300"></path><path id="Caminho_801" data-name="Caminho 801" d="M-2294.924,2497.186h1.136a1.693,1.693,0,0,0,.566-.075.59.59,0,0,0,.309-.241.644.644,0,0,0,.106-.358.6.6,0,0,0-.2-.467.955.955,0,0,0-.648-.183h-1.265Zm-.531,2.235v-4h1.773a2.361,2.361,0,0,1,.813.108.888.888,0,0,1,.444.38,1.137,1.137,0,0,1,.166.6,1.009,1.009,0,0,1-.275.718,1.4,1.4,0,0,1-.85.37,1.363,1.363,0,0,1,.32.2,2.672,2.672,0,0,1,.438.533l.692,1.089h-.661l-.529-.832q-.231-.362-.381-.552a1.208,1.208,0,0,0-.269-.267.789.789,0,0,0-.241-.106,1.615,1.615,0,0,0-.295-.019h-.613v1.777Zm1.567-5.568a3.678,3.678,0,0,1,3.677,3.678,3.677,3.677,0,0,1-3.677,3.677,3.677,3.677,0,0,1-3.677-3.677A3.678,3.678,0,0,1-2293.887,2493.853Zm0,.467a3.211,3.211,0,0,1,3.211,3.211,3.211,3.211,0,0,1-3.211,3.211,3.211,3.211,0,0,1-3.21-3.211A3.211,3.211,0,0,1-2293.887,2494.32Z" transform="translate(-160.161 -77.399)" fill="#008ccf" fill-rule="evenodd"></path><path id="Caminho_802" data-name="Caminho 802" d="M-2334.21,2480.508l6.973-3.033a.887.887,0,0,1,1.289.574l1.125,3.324a.887.887,0,0,1-.675,1.239l-7.381,1.825a.965.965,0,0,1-1.239-.675l-.665-1.965A.964.964,0,0,1-2334.21,2480.508Z" transform="translate(-141.558 -69.18)" fill="#008ccf"></path></g></svg>